<svg xmlns="http://www.w3.org/2000/svg" viewBox="0 0 550.6 176.71">
  <defs>
    <style>
      .cls-1 {
        fill: #00b767;
      }
    </style>
  </defs>
  <title>rmf_logo</title>
  <g id="Livello_2" data-name="Livello 2">
    <g id="Livello_1-2" data-name="Livello 1">
      <g>
        <polygon class="cls-1" points="0.06 171.21 0.43 170.01 0.91 168.82 0.31 167.63 0.05 166.43 0.15 165.24 0.44 164.04 0.27 162.85 0.56 161.65 0.28 160.46 0.35 159.26 0.02 158.07 0.12 156.87 0.03 155.68 0.08 154.48 0.13 153.28 0.08 152.09 0.06 150.89 0.13 149.69 0.09 148.49 0.86 147.29 0.05 146.09 0.37 144.89 0.14 143.69 0.38 142.49 0.21 141.29 0.46 140.09 0.91 138.89 0.56 137.69 0.16 136.49 0.23 135.29 0.4 134.09 0.48 132.9 0.28 131.7 0.14 130.5 0.08 129.3 0.08 128.11 0.27 126.91 0.72 125.71 0.4 124.52 0.83 123.32 0.73 122.12 0.94 120.92 0.65 119.72 0.46 118.53 0.74 117.33 0.46 116.13 0.46 114.93 0.19 113.72 0.1 112.52 0.91 111.32 0.75 110.12 0.27 108.92 0.25 107.72 0.82 106.52 0.59 105.32 0.55 104.12 0.57 102.92 0.59 101.72 0.63 100.52 0.87 99.32 0.01 98.12 0.08 96.92 0.67 95.72 0.79 94.52 0.84 93.32 0.08 92.12 0.01 90.92 0.62 89.72 0.36 88.51 0.41 87.31 0.03 86.11 0.28 84.91 0.47 83.71 0.9 82.51 0.86 81.31 0.85 80.11 0.8 78.91 0.75 77.71 0.39 76.51 0.38 75.3 0.51 74.1 0.88 72.9 0.55 71.69 0.82 70.49 0.27 69.29 0.55 68.09 0.19 66.89 0.72 65.69 0.56 64.49 0.81 63.28 0.34 62.08 0.44 60.88 0.93 59.67 0.37 58.47 0.29 57.27 0.48 56.07 0.19 54.87 0 53.66 0.27 52.46 0.95 51.26 0.27 50.06 0.43 48.86 0.05 47.66 0.42 46.46 0.72 45.26 0.7 44.06 0.43 42.86 0.45 41.66 0.56 40.45 0.92 39.25 0.77 38.05 0.89 36.85 0.41 35.65 0.44 34.44 0.59 33.24 0.3 32.03 0.72 30.83 0.31 29.63 0.5 28.42 0.64 27.22 0.97 26.01 0.19 24.81 0.23 23.61 0.4 22.4 0.57 21.19 0.4 19.99 0.28 18.79 0.56 17.58 0.52 16.38 0.42 15.17 0.89 13.96 0.33 12.76 0.39 11.55 0.38 10.34 0.68 9.13 0.23 7.92 0.83 6.71 0.04 5.5 1.07 4.49 0.88 3.28 1.94 2.67 2.47 1.71 3.44 1.24 4.37 0.59 5.49 0.05 6.69 0.21 7.88 0.82 9.08 0.47 10.28 0.84 11.47 0.61 12.67 0.42 13.87 0.53 15.06 0.69 16.26 0.03 17.45 0.34 18.65 0.89 19.85 0.17 21.04 0.24 22.24 0 23.43 0.47 24.63 0.1 25.83 0.06 27.02 0.74 28.22 0 29.41 0.76 30.61 0.63 31.8 0.5 33 0.16 34.2 0.21 35.39 0.81 36.59 0.91 37.78 0.74 38.98 0.52 40.17 0.33 41.37 0.93 42.56 0.25 43.76 0.73 44.95 0.01 46.15 0.03 47.34 0 48.54 0.4 49.74 0.63 50.93 0.17 52.13 0.03 53.32 0.68 54.52 0.82 55.71 0.52 56.91 0.95 58.11 0.54 59.3 0.61 60.5 0.13 61.69 0.12 62.89 0.3 64.09 0.84 65.28 0.52 66.48 0.14 67.68 0.93 68.87 0.21 70.07 0.4 71.27 0.1 72.46 0.38 73.66 0.12 74.86 0.58 76.05 0.58 77.25 0.37 78.45 0.08 79.65 0.12 80.84 0.92 82.04 0.88 83.24 0.89 84.44 0.83 85.64 0.6 86.83 0.81 88.03 0.29 89.23 0.34 90.43 0.31 91.63 0.99 92.83 0.3 94.03 0.51 95.23 0.64 96.43 0.11 97.63 0 98.83 0.73 100.03 0.91 101.23 0.59 102.43 0.95 103.63 0.79 104.83 0.93 106.03 0.13 107.23 0.93 108.44 0.64 109.64 0.43 110.83 0.95 112.03 0.33 113.23 0.1 114.43 0.95 115.63 0.22 116.83 0.73 118.03 0.54 119.23 0.6 120.43 0 121.63 0.13 122.83 0.73 124.02 0.91 125.22 0.06 126.42 0.24 127.62 0.86 128.82 0.98 130.01 0.81 131.21 0.43 132.41 0.86 133.61 0.99 134.81 0.89 136 0.61 137.2 0.19 138.4 0.69 139.6 0.51 140.79 0.75 141.99 0.95 143.19 0.49 144.39 0.14 145.58 0.27 146.78 0.82 147.98 0.02 149.18 0.63 150.37 0.98 151.57 0.46 152.77 0.84 153.97 0.4 155.16 0.84 156.36 0.77 157.56 0.88 158.76 0.71 159.95 0.2 161.15 0.03 162.35 0.56 163.55 0.73 164.75 0.85 165.94 0 167.14 0.12 168.34 0.37 169.54 0.36 170.74 1 171.94 0.98 173.13 0.49 174.34 0.35 175.53 0.22 176.73 0.79 177.93 0.74 179.13 0.84 180.33 0.24 181.53 0.93 182.73 0.34 183.93 0.47 185.13 0.89 186.34 0.17 187.54 0.22 188.74 0.86 189.94 0.49 191.14 0.23 192.34 0.79 193.54 0.69 194.74 0.7 195.94 0.81 197.15 0.69 198.35 0.82 199.55 0.91 200.75 0.13 201.95 0.01 203.15 0.17 204.34 0.38 205.54 0.29 206.74 0.02 207.94 0.49 209.14 0.16 210.34 0.57 211.54 0.12 212.74 0.86 213.94 0.92 215.14 0 216.34 1 217.53 0.04 218.73 0.76 219.93 0.33 221.13 0.71 222.33 0.44 223.53 0.13 224.73 0.68 225.93 0.61 227.13 0.95 228.32 0.86 229.52 0.05 230.72 0.9 231.92 0.26 233.12 0.58 234.32 0.93 235.52 0.75 236.72 0.92 237.92 0.36 239.12 0.18 240.32 0.67 241.52 0.03 242.72 0.95 243.92 0.52 245.12 0.21 246.32 0.43 247.52 0.44 248.72 0.67 249.93 0.56 251.13 0.48 252.33 0.7 253.53 0.59 254.73 0.13 255.93 0.38 257.13 0.43 258.34 0.72 259.54 0.81 260.74 0.86 261.94 0.17 263.14 0.8 264.34 0.79 265.54 0.49 266.74 0.09 267.94 0.22 269.14 0.83 270.34 0.26 271.54 0.01 272.74 0.24 273.94 0.76 275.14 0.63 276.34 0.25 277.54 0.23 278.74 0.07 279.94 0.91 281.14 0.01 282.34 0.28 283.54 0.47 284.74 0.99 285.94 0.78 287.14 0.18 288.34 0.21 289.54 0.29 290.74 0.32 291.94 0.29 293.14 0.08 294.34 0.12 295.55 0.02 296.75 0.11 297.95 0.81 299.15 0.09 300.35 0.98 301.56 0.26 302.76 0.84 303.96 0.9 305.16 0.55 306.36 0.61 307.56 0.26 308.76 0.13 309.96 0.91 311.16 0.2 312.36 0.71 313.56 0.33 314.76 0.26 315.97 0.77 317.17 0.17 318.37 0.07 319.57 0.21 320.77 0.53 321.97 0.42 323.17 0.21 324.37 0.96 325.57 0.97 326.77 0.05 327.97 0.07 329.18 0.88 330.38 0.3 331.58 0.86 332.78 0.72 333.99 0.16 335.19 0.49 336.39 0.46 337.59 0.23 338.79 0.88 339.99 0.24 341.19 0.94 342.39 0.82 343.59 0.42 344.79 0.06 345.99 0.47 347.18 0.01 348.38 0.56 349.58 0.74 350.78 0.67 351.97 0.59 353.17 0.95 354.37 0.28 355.56 0.52 356.76 0.46 357.96 0.54 359.15 0.72 360.35 0.79 361.55 0.37 362.74 0.6 363.94 0.85 365.14 0.66 366.34 0.33 367.53 0.84 368.73 0.29 369.93 0.6 371.13 0.89 372.33 0.3 373.53 0.79 374.73 0.12 375.93 0.09 377.13 0.53 378.33 0.41 379.53 0.35 380.74 0.14 381.94 0.77 383.14 0.39 384.35 0.33 385.55 0.77 386.75 0.59 387.95 0.28 389.15 0.81 390.36 0.21 391.56 0.69 392.75 0.17 393.95 0.28 395.15 0.74 396.35 0.32 397.55 0.72 398.75 0.39 399.95 0.94 401.15 0.19 402.35 0.64 403.55 0.2 404.75 0.3 405.95 1 407.15 0.4 408.36 0.51 409.56 0.53 410.76 0.75 411.96 0.94 413.17 0.72 414.37 0.2 415.58 0.93 416.78 0.9 417.98 0.43 419.19 0.95 420.39 0.48 421.59 0.39 422.79 0.32 423.99 1 425.19 0.96 426.39 0.67 427.6 0.38 428.8 0.21 430 0.7 431.2 0.86 432.41 0.18 433.61 0.31 434.81 0.25 436.02 0.91 437.22 0.13 438.43 0.61 439.63 0.02 440.83 0.09 442.04 0.45 443.24 0.92 444.44 0.48 445.65 0.24 446.85 0.9 448.05 0.77 449.26 0.67 450.46 0.82 451.67 0.81 452.87 0.82 454.08 0.44 455.28 0.31 456.49 0.64 457.69 0.54 458.89 0.29 460.1 0.79 461.3 0.48 462.5 1 463.71 0.99 464.92 0.28 466.12 0.74 467.33 0.83 468.53 0.07 469.74 0.7 470.94 0.56 472.15 0.27 473.35 0.33 474.56 0.12 475.76 0.01 476.96 0.32 478.16 0.26 479.36 0.95 480.56 0.76 481.76 0.86 482.97 0.77 484.17 0.88 485.38 0.16 486.59 0.96 487.79 0.03 488.99 0.28 490.2 0.52 491.4 0.9 492.61 0.75 493.82 0.71 495.02 0.54 496.23 0.45 497.43 0.77 498.64 0.34 499.85 0.49 501.06 0.79 502.26 0.31 503.47 0.9 504.68 0.34 505.89 0.53 507.09 0.7 508.3 0.05 509.5 0.35 510.71 0.46 511.92 0.93 513.13 0.65 514.34 0.14 515.55 0.18 516.76 0.9 517.97 0.91 519.19 0.08 520.4 0.51 521.62 0.85 522.67 1.45 523.66 2.11 524.53 2.96 525.01 4.1 525.88 5.09 525.81 6.37 526.58 7.39 526.22 8.76 526.81 9.83 527.04 11.02 527.71 12.07 528.13 13.2 528.14 14.45 528.61 15.56 529.4 16.57 528.96 17.96 529.43 19.07 529.87 20.2 529.96 21.42 530.91 22.39 531.42 23.5 531.9 24.61 531.9 25.86 531.93 27.11 532.74 28.12 532.69 29.39 533.16 30.5 533.29 31.72 533.77 32.83 533.83 34.07 534.2 35.21 535.05 36.21 535.61 37.29 535.78 38.5 535.88 39.72 536.56 40.77 537.01 41.89 537.27 43.07 537 44.41 538.03 45.35 538.52 46.45 538.92 47.58 538.89 48.84 539.36 49.95 539.47 51.17 539.77 52.34 540.28 53.45 540.85 54.53 540.66 55.84 541.25 56.92 542.01 57.94 541.83 59.25 542.39 60.34 542.36 61.61 543.1 62.64 543.01 63.93 543.97 64.89 543.62 66.26 544.86 67.14 544.64 68.47 544.81 69.68 545.43 70.75 546.29 71.74 546.21 73.03 546.63 74.15 546.74 75.38 546.8 76.62 547.65 77.62 548.19 78.72 548.19 79.98 548.68 81.09 548.96 82.27 549.29 83.43 549.97 84.49 549.91 85.78 550.18 86.96 550.6 88.35 549.93 89.67 549.63 90.83 549.4 92.02 548.88 93.12 549.03 94.42 548.21 95.43 547.82 96.56 547.49 97.72 547.75 99.05 547.31 100.17 546.74 101.25 546.79 102.52 546.36 103.65 545.94 104.77 545.07 105.77 545.59 107.18 544.74 108.18 544.71 109.43 543.92 110.44 543.88 111.69 543.59 112.85 542.79 113.87 542.79 115.12 541.95 116.12 541.56 117.26 541.68 118.56 541 119.61 540.52 120.72 540.89 122.08 540.29 123.16 539.83 124.27 539.87 125.54 538.95 126.52 538.85 127.74 538.26 128.82 538.5 130.15 537.92 131.23 537.07 132.22 536.9 133.42 537.18 134.76 536.02 135.66 536.37 137.02 535.36 137.97 535.39 139.24 535.24 140.45 534.5 141.48 534.69 142.79 533.62 143.72 533.78 145.03 532.91 146.02 533.13 147.35 532.5 148.42 532.45 149.66 531.81 150.72 531.55 151.9 530.68 152.9 530.79 154.19 530.37 155.32 530.1 156.5 529.55 157.59 529.87 158.94 529.03 159.94 528.56 161.06 528.74 162.37 527.94 163.39 527.39 164.49 527.37 165.74 527.05 166.9 526.91 168.13 526.25 169.19 525.48 170.22 525.2 171.4 525.25 172.68 525.05 174.06 523.82 174.77 522.82 175.52 521.71 176.23 520.4 176.66 519.21 176.38 518.01 175.87 516.81 175.94 515.62 175.81 514.42 175.93 513.22 175.86 512.03 176.26 510.83 175.75 509.63 176.08 508.44 176.59 507.24 175.76 506.05 176.63 504.85 176.34 503.65 175.99 502.46 175.93 501.26 176.05 500.07 176.11 498.87 175.88 497.68 176.11 496.48 176.65 495.29 176.16 494.09 176.34 492.89 175.85 491.7 176.21 490.5 176.1 489.31 176.18 488.11 176.3 486.92 176.49 485.72 176.52 484.53 176.08 483.33 176.55 482.13 176.7 480.94 176.03 479.74 176.21 478.55 176.3 477.35 176.69 476.16 176.63 474.96 176.11 473.77 175.74 472.57 175.83 471.37 175.87 470.18 175.78 468.98 176.16 467.79 175.76 466.59 176.2 465.39 176.4 464.2 176.01 463 175.79 461.81 175.81 460.61 175.85 459.41 176.03 458.22 176.28 457.02 176.54 455.82 176.54 454.63 176.16 453.43 175.8 452.23 176.12 451.04 176.53 449.84 175.79 448.64 176.18 447.44 176.21 446.25 176.45 445.05 176.17 443.85 176.49 442.65 176.64 441.45 176.38 440.26 176.36 439.06 176.07 437.86 176.29 436.66 176.08 435.46 175.76 434.26 176.32 433.06 175.89 431.86 176.69 430.66 176.51 429.46 175.8 428.26 176.36 427.06 176.4 425.86 176.64 424.66 176.11 423.46 175.83 422.26 176.04 421.06 176.49 419.86 176.06 418.66 176.02 417.46 176.38 416.26 176.27 415.06 175.79 413.86 176.18 412.66 175.8 411.46 176.08 410.26 176.14 409.06 176.08 407.86 176.19 406.66 176.4 405.46 176.16 404.26 176.46 403.07 175.92 401.87 176.41 400.67 175.81 399.47 176.34 398.27 176.47 397.08 176.08 395.88 175.89 394.68 176.55 393.48 175.75 392.29 176.35 391.09 176.31 389.89 176.02 388.69 176.7 387.49 176.42 386.3 176.53 385.1 175.99 383.9 176.02 382.7 176.5 381.51 176.49 380.31 175.85 379.11 175.81 377.92 175.9 376.72 175.74 375.52 175.78 374.32 175.94 373.13 175.88 371.93 176.09 370.73 176.69 369.53 175.8 368.33 176.3 367.14 176.59 365.94 175.9 364.74 176.42 363.54 176.17 362.35 176.06 361.15 175.86 359.95 176.51 358.75 176.35 357.55 176 356.35 176.43 355.15 176.41 353.96 176.59 352.76 176.13 351.56 176.06 350.36 176.55 349.16 175.87 347.96 176.33 346.76 176.28 345.56 176.38 344.36 176.47 343.16 176.37 341.96 175.94 340.76 176.35 339.56 176.64 338.36 176.02 337.15 176.55 335.95 175.93 334.75 176.34 333.55 176 332.35 176.23 331.15 176.28 329.95 175.84 328.75 176.46 327.55 176.51 326.35 176.49 325.15 175.74 323.95 176.26 322.75 176.59 321.55 175.98 320.35 176.15 319.15 175.92 317.95 176.24 316.75 176.16 315.55 176.59 314.35 176.39 313.15 176.01 311.95 175.73 310.76 176.41 309.56 176.57 308.36 175.84 307.16 175.75 305.96 176.21 304.76 175.76 303.56 175.85 302.37 176.02 301.17 176.04 299.97 175.76 298.77 176.31 297.57 175.77 296.37 175.99 295.17 176.15 293.97 176.56 292.77 176.18 291.57 175.9 290.37 176.23 289.17 176.03 287.98 175.75 286.77 176.64 285.57 176.12 284.38 175.93 283.17 176.18 281.97 175.94 280.77 176.65 279.57 175.88 278.37 176.53 277.17 176.07 275.97 176.49 274.77 176.04 273.56 176.54 272.36 176.36 271.16 176.12 269.96 175.97 268.76 175.77 267.56 175.94 266.36 176.01 265.15 175.81 263.95 176.39 262.75 176.5 261.55 175.88 260.35 176.01 259.15 176.5 257.95 175.78 256.75 176.07 255.55 176.19 254.35 176.55 253.16 176.24 251.96 176.14 250.76 176.31 249.56 175.89 248.36 175.79 247.16 176.62 245.96 175.92 244.76 175.93 243.56 176.1 242.36 176.01 241.16 176.37 239.96 176.07 238.76 176.19 237.56 176.13 236.35 175.99 235.15 175.83 233.95 175.96 232.75 176.58 231.55 176.11 230.35 176.13 229.15 176.28 227.94 175.76 226.74 176.69 225.54 176.55 224.34 176.38 223.13 176.07 221.93 175.78 220.73 176.18 219.53 176.06 218.33 176.6 217.13 176.28 215.93 176.02 214.73 176.56 213.53 176.2 212.33 176.4 211.13 176.6 209.93 176.52 208.73 176.04 207.53 176.27 206.33 176.59 205.13 175.93 203.93 176.6 202.72 175.91 201.52 176.37 200.32 176.5 199.12 176.27 197.92 176.37 196.72 175.95 195.51 176.34 194.31 176.38 193.11 175.88 191.91 176.56 190.71 176.27 189.5 175.93 188.3 176.04 187.1 176.13 185.9 175.9 184.7 175.83 183.5 175.88 182.3 175.92 181.1 176.59 179.91 175.85 178.71 176.66 177.51 175.71 176.31 176.44 175.12 176.22 173.92 176.48 172.72 176.61 171.53 176.56 170.33 175.94 169.13 176.34 167.94 176.07 166.74 176.61 165.54 175.78 164.34 175.86 163.15 176.03 161.95 175.98 160.75 176.16 159.56 176.31 158.36 175.81 157.16 176.54 155.96 176.7 154.76 176.04 153.56 175.79 152.37 176.35 151.16 176.71 149.96 176.03 148.76 176.29 147.56 176.21 146.36 176.4 145.16 175.74 143.95 175.85 142.75 176.54 141.55 176.21 140.34 175.81 139.14 176.29 137.94 176.39 136.74 175.78 135.54 175.89 134.34 176.69 133.14 176.07 131.94 176.15 130.74 176.15 129.54 175.78 128.34 176.25 127.14 176.7 125.94 175.72 124.74 176.7 123.54 175.98 122.34 176.34 121.14 176.64 119.94 175.85 118.74 176.52 117.54 176.53 116.33 176.51 115.13 176.61 113.93 176.35 112.72 176.57 111.52 176.52 110.32 175.73 109.11 176.36 107.91 175.84 106.71 175.95 105.5 176.13 104.3 176.47 103.1 176.35 101.9 175.87 100.7 175.96 99.5 175.81 98.3 176.25 97.09 176.13 95.89 176.64 94.69 176.58 93.49 175.79 92.28 176.38 91.08 176.68 89.87 175.85 88.67 176.3 87.46 176.15 86.26 176.07 85.06 176.28 83.86 176.61 82.65 175.81 81.45 176.02 80.25 176.13 79.04 176.6 77.84 176.37 76.64 175.83 75.43 176.55 74.23 176.27 73.02 176.01 71.82 176.65 70.61 176.32 69.41 175.97 68.2 176.25 67 175.95 65.8 176.38 64.59 176.22 63.39 176.62 62.18 176.44 60.98 176 59.77 175.76 58.57 175.86 57.36 176.28 56.16 176.06 54.95 176.25 53.75 176.36 52.54 176.25 51.34 176.31 50.14 176.3 48.93 175.98 47.73 175.84 46.53 176.07 45.33 176.07 44.13 175.94 42.93 175.82 41.72 176.14 40.51 176.47 39.31 175.85 38.1 176.29 36.9 176.58 35.7 175.86 34.49 176.66 33.28 175.82 32.08 175.94 30.87 176.4 29.67 176.54 28.46 176.54 27.25 176.63 26.05 176.05 24.84 176.52 23.63 176 22.42 176.18 21.21 176.24 20.01 175.88 18.8 176.47 17.59 175.85 16.39 176.23 15.18 176.07 13.97 176.52 12.76 176.47 11.55 176.18 10.34 176.18 9.13 175.75 7.92 175.92 6.71 176.1 5.49 175.82 4.36 176.15 3.32 175.72 2.23 175.3 1.47 174.41 1.29 173.23 0.31 172.39 0.06 171.21"/>
        <g>
          <path d="M27.73,149l-.09-1-.56-1.2.45-1.2.48-1.2-.54-1.2.06-1.2,0-1.2-.32-1.2.05-1.2.6-1.2-.68-1.2.37-1.21.47-1.2-.47-1.21.11-1.2.33-1.2,0-1.2-.58-1.2-.24-1.21-.07-1.2.39-1.2-.16-1.2.15-1.2.54-1.2-.78-1.2.66-1.2-.12-1.2.19-1.21-.88-1.2.85-1.2,0-1.21-.47-1.2.43-1.21-.14-1.2-.48-1.2.31-1.2-.43-1.21.88-1.2-.16-1.2-.7-1.2.59-1.21-.12-1.2,0-1.2,0-1.21-.53-1.2.69-1.21-.72-1.2.21-1.2-.12-1.21.17-1.2.63-1.2-.71-1.21-.09-1.2L28,84.22,27.87,83l-.1-1.21-.49-1.2.29-1.2.24-1.21L27.4,77l.25-1.21.31-1.2-.77-1.21-.11-1.2L28,71l-.86-1.2.74-1.2-.27-1.2-.4-1.2.57-1.2-.48-1.21.56-1.21-.71-1.2.54-1.2L27.59,59l0-1.2-.26-1.2-.25-1.21.65-1.21-.34-1.2.12-1.21.43-1.2-.28-1.21.21-1.21-.4-1.2.4-1.21-.21-1.21-.64-1.2.59-1.21-.56-1.21,0-1.2.49-1.21.23-1.21L27.13,36l.46-1.2-.3-1.21-.09-1.21.1-1.21L27.45,30l.48-1.22-.68-1.51,1.5.71,1.2-.88,1.2.69h1.2l1.2-.57,1.2.44,1.2-.55,1.2.59,1.2,0,1.21.2,1.2-.26,1.2-.24,1.2.08,1.2-.16h1.2l1.2.43,1.2-.5,1.21.76,1.2-.24,1.2-.41,1.2,0,1.2.54,1.21-.57,1.2.68,1.2-.92,1.2.5L60,27.18l1.2.82,1.2-.31,1.2.36,1.2-.57L66,27.13l1.2.51,1.2.35,1.21-.92,1.2.25,1.2.5,1.2-.37,1.21.37,1.2-.05,1.2-.3,1.2.58,1.21-.41,1.19-.57,1.2.13,1.2.47,1.2.1,1.2,0h1.2l1.21-.66h1.2l1.21.33,1.2.13,1.2-.42,1.2.15,1.2-.16,1.21.13,1.2.78,1.21-.77,1.2.57h1.2l1.21-.34,1.21.55,1.2-.15,1.2-.43,1.21.57,1.21-.78,1.2.09,1.2-.12,1.21.18,1.21.08,1.2.38,1.21-.56,1.2,0,1.21.5,1.21-.6,1.21.72,1.21-.32,1.21,0,1.21-.54L125,28l1.18-.27,1.17.24,1.23-.7,1.1,1,1.2-.2,1.25-.39,1.09.77,1.16.18,1.29-.38,1.05.75,1.21,0,1.09.5,1.15.3,1.13.34,1,.71,1.06.51,1.17.24,1.19.26.93.79,1.14.37.84.9,1,.59.94.72,1.06.52.68,1.06,1,.62,1.19.42.81.86.74.94,1.21.47.29,1.36,1.28.44.29,1.31,1.13.62.46,1.13,1.05.73.69,1,.34,1.18.18,1.25,1.14.76L164.6,51l.14,1.24.88.94-.19,1.33.59,1.06.41,1.12,0,1.21,0,1.22.7,1.08-.22,1.23,0,1.19.52,1.14,0,1.2.49,1.17-.84,1.2.43,1.2-.37,1.17.68,1.25-.52,1.16.19,1.23-.48,1.14-.45,1.13L166,76.68l.09,1.25.16,1.3-.58,1.08-.63,1L165,82.63l-.58,1.07-1.23.73-.11,1.28-.55,1.07L162,87.84l-.59,1.06-1.3.52-.49,1.13-.92.78-.59,1.07L157,93l-.5,1.19-.91.79-.94.72-.76,1-1.38.12-1,.67-.69,1.09-1.06.53-.79,1-1.42-.13-.71,1.21-1.11.42-1,.57-1.11.44-1.19.2-1.14.32-1.16.26-1.23,0-1.08.48-1,.92-1.26-.24-1.08.69-1.18.09-1.24-.33-1.15.35h-1.18l-1.2-.25-1.16.22-1.18,0-1.42.37,1,.81.81.89.77.94,1.44.22.38,1.35,1.16.52,1,.71.74,1,1.21.46.24,1.51,1,.66,1.14.54,1.09.61.62,1.11.56,1.17,1,.74,1.21.47.91.79.63,1.09.94.77,1,.71.54,1.19.9.81,1.44.23.51,1.23,1,.7.94.76.79.93.87.84.95.76.71,1,1.06.64.84.87,1.24.45.27,1.49,1.27.42.52,1.21.91.8,1.12.58,1.22.47.52,1.21.86.84.66,1.08,1.46.21.54,1.2,1.12.59.8.91.8.93.72,1,1.4.28.88.84.6,1.15.91.85-1.22-.28-1.19.19-1.19.27-1.2-.64-1.19.51-1.2-.49-1.19.79-1.2-.43-1.2.36-1.2-.26-1.19-.27-1.2.05-1.19-.16-1.2.58-1.2.09-1.2-.73-1.2.29h-1.2l-1.19-.35-1.2.44-1.2.33-1.2-.51-1.2.56-1.2-.68-1.2.06-1.2.27-1.2.41-1.2-.74-1.2.1-1.2.15-1.2.22-1.2-.07-1.2.12-1.21.09L130,149l-1.2.09-1.21-.1-1.22.17-.77-.94-.73-.95-1.28-.4-.85-.82-.65-1-.54-1.13-1.25-.43-.45-1.23-.63-1.06-1.06-.62-.61-1.08-.93-.76-1-.69-1-.67-1-.71-.38-1.3-.78-.9-1.28-.41-.94-.75-.62-1.07-1-.64-.54-1.14-1.21-.48-.3-1.38-1.16-.54-.82-.86-.82-.88-.61-1.08-.84-.84-.79-.91-.91-.77-1.29-.41-.62-1.07-.91-.78-.81-.88-.52-1.17-.82-.86-1.25-.45-.74-.95-.67-1-.86-.83-.91-.78-.92-.78-.59-1.1-1.23-.48-.58-1.1-.86-.84-.68-1L85,107.81l-.76-.68-1-.64H82l-1.23.43-1.22.19-1.23-.24-1.22.24-1.23-.87-1.22.09-1.22.81-1.23-.21-1.22-.07-1.23,0-1.22.24-1.23-.67-1.23.16-1.22.46-1.23-.22-1.23.1L61,106.58l-.16,1.31.12,1.2.4,1.21.11,1.21v1.21l-.15,1.22-.71,1.21.3,1.21.22,1.21-.41,1.21.11,1.21-.09,1.22.37,1.21-.28,1.21,0,1.21.11,1.22.4,1.21v1.21l0,1.22-.54,1.21.08,1.22.6,1.21.16,1.22-.72,1.21.45,1.21-.18,1.21-.39,1.22.56,1.21,0,1.22-.11,1.22.35,1.21v1.22l-.71,1.22.22,1.22.15,1.3-1.28.38-1.19-.75-1.2.53-1.2-.25-1.19-.44-1.2.47-1.2.13-1.19-.37-1.2.15-1.2-.12-1.2-.18-1.2.16h-1.2l-1.19.41-1.2-.23-1.2.21-1.2,0-1.2-.37-1.19-.32-1.2.34-1.2.31-1.2.12-1.2-.29-1.21-.35-1.2.61L30,149l-1.23.45ZM60.94,54.44,61,55.82l.55,1.2-.44,1.21-.49,1.21.54,1.2-.06,1.21,0,1.2.32,1.21,0,1.21-.6,1.2.67,1.21-.36,1.2-.48,1.21.47,1.2L61,72.7l-.33,1.21,0,1.21.59,1.21.24,1.21.06,1.21-.4,1.17,1.15-.18,1.18.15,1.19.54,1.19-.78,1.19.67,1.19-.12,1.19.18,1.19-.88,1.19.85H73l1.18-.47,1.19.43,1.19-.14,1.18-.49,1.19.32,1.19-.44,1.2.89,1.19-.17,1.19-.69,1.18.58,1.19-.11,1.19,0,1.19,0,1.2-.53,1.19.69L92,79.54l1.19.21,1.19-.12,1.2.17,1.19.64L98,79.72l1.19-.09,1.2.77,1.19-.12,1.19-.1L104,79.7l1.19.29,1.2.23,1.19-.41,1.19.26,1.2.31,1.2-.77,1.19-.12,1.2.89,1.2-.86,1.2.74,1.2-.28,1.18-.47,1.25.46,1.13-.63,1.28.34,1-1,1.3.19,1.11-.48L126.5,78l.93-.81.84-.86,1.33-.25.61-1.09.83-.86,1-.82.27-1.23.6-1.1-.11-1.27.54-1.16-.16-1.23-.69-1.16.44-1.25-.81-1-.34-1.11-.07-1.27-.45-1.16-1.3-.5-.5-1.16-1.11-.52-1-.58-1-.65-1-.61-1-.87-1.38.43-1-1.08-1.34.66-1.1-.84-1.2-.13-1.24.52-1.19-.47-1.19.55-1.19-.58-1.19,0-1.19-.21-1.19.26-1.19.24-1.19-.08-1.19.16h-1.19L104,54.46l-1.18.49-1.19-.76-1.18.25-1.19.4-1.19,0-1.19-.53-1.19.57-1.19-.68-1.19.91-1.19-.49L91,55l-1.19-.82-1.19.3-1.2-.36-1.19.57L85,55.05l-1.19-.51-1.19-.35-1.19.92-1.2-.25L79,54.36l-1.19.36-1.19-.37-1.2,0-1.19.31-1.19-.58-1.19.4-1.19.58L69.49,55,68.3,54.5l-1.2-.09-1.19,0h-1.2l-1.2.65H62.28Z"/>
          <path d="M184.29,149.44l.4-1.49-.2-1.2.24-1.2,0-1.2-.19-1.2-.19-1.2-.05-1.2-.14-1.2.59-1.2-.13-1.2-.2-1.2.32-1.21v-1.2l.34-1.21-.25-1.2-.61-1.2.88-1.2-.1-1.2-.67-1.21.53-1.2-.4-1.2-.1-1.2-.16-1.2.61-1.2v-1.2l-.12-1.2-.25-1.2-.08-1.21.36-1.2-.33-1.2.44-1.21.05-1.2-.48-1.21-.23-1.2.6-1.2,0-1.2-.66-1.21.74-1.2,0-1.2-.57-1.2.69-1.21,0-1.2-.57-1.2.18-1.21-.13-1.2-.2-1.21-.07-1.2.5-1.2-.19-1.21.25-1.2-.33-1.2.66-1.21-.89-1.2.31-1.21L185,83l-.65-1.21-.06-1.2.19-1.2.05-1.21.1-1.2.07-1.21.24-1.2-.15-1.21-.69-1.2.12-1.2.18-1.2.45-1.2-.23-1.2.08-1.2.24-1.2-.25-1.21.16-1.21-.76-1.2.82-1.2L184.23,59v-1.2l.84-1.2-.63-1.21.51-1.21,0-1.2-.78-1.21-.06-1.2.59-1.21-.66-1.21.94-1.2-.69-1.21V44.48l-.18-1.2.8-1.21,0-1.21,0-1.2.08-1.21-.13-1.21V36l-.67-1.2.78-1.21-.18-1.21V31.2l0-1.21-.6-1.22.47-1.13,1.1,0,1.18,0,1.19.06,1.19,0,1.19.06,1.18.22,1.19-.13,1.18.17,1.19-.09,1.18-.64,1.19.49,1.19.1,1.19-.71,1.18.31,1.19.6,1.19-.89,1.19.9,1.19-.83,1.19.83,1.18-.12,1.19-.77,1.19.29,1.19-.23,1.19.57,1.18.18,1.2-.21,1.18-.31,1.2.18,1.19-.15,1.19.49,1.19-.29,1.2.21,1.36-.63.25,1.44.79.91.82.9.65,1,.67,1,.19,1.29.42,1.13.71,1,1.1.74.74.94.1,1.34.43,1.14,1.29.62.56,1.06.8.91V44l.6,1,.75.95.95.82.17,1.29.7,1,.89.86.52,1.08.18,1.29,1.24.65.68,1,.71,1,.63,1,.25,1.24.5,1.1.69,1,.45,1.12.89.86.93.83.13,1.33,1.09.72.24,1.25.39,1.16,1,.77.24,1.24.73,1,.77.93.62,1,.37,1.18.79.92.61,1,.42,1.14.59,1,.88.86.65,1,1,.78.56,1-.09,1.47.6,1,1,.79.23,1.26.66,1,.66,1,.78.93.37,1.18,1.2.67.8.91.22,1.27.48,1.12,1.05.76.24,1.26,1,.78.61,1,.76.94.52,1.08.05,1.37,1.25.65-.12,1.47.87.87.9.87.88.87,0,1.38,1.25.65-.14,1.49.87.88,1.09.76.25,1.7.43-1.58,1.22-.66,0-1.41,1.08-.74.69-1,.63-1,.71-1,.54-1.07.51-1.08,0-1.41,1.36-.57,0-1.38.48-1.1,1-.79.88-.86.44-1.14.49-1.09.48-1.1.89-.86.32-1.2,1-.81.4-1.15.44-1.13,1-.81.74-1,0-1.41,1.13-.71.09-1.34.83-.89.88-.86.35-1.19.55-1.06,1.28-.62.55-1.07.08-1.34,1.18-.68.64-1,.53-1.07-.11-1.45,1.06-.75.76-.94.62-1,.5-1.1.66-1,.72-1,.51-1.09.25-1.24,1.28-.61.55-1.07.37-1.17.8-.9.72-1,.32-1.21.49-1.09.7-1,.2-1.28.67-1,.93-.83,1-.81.17-1.3.62-1,.55-1.06.52-1.09.67-1,.46-1.12,1.29-.62.33-1.2,1-.81.45-1.12.09-1.34,1.17-.69.75-.95L319.9,37V35.6l.83-.9.57-1.06,1.07-.75.52-1.09.51-1.09.8-.93-.06-1.45.8-1.2,1.44-.05,1.19.34,1.19.37,1.19.19,1.19-.57,1.19.17,1.19.18,1.19.12,1.2.13,1.19-.69,1.19-.09,1.19.34,1.19-.31,1.2-.13,1.19.5,1.19,0,1.2-.39,1.19.47,1.2,0,1.19-.62,1.19.23,1.19-.21,1.2.38,1.19.42L355,28l1.2-.46,1.2.42,1.19-.45,1.2-.11,1.2.45,1.2-.68.91.65.6.91-.8,1.2.29,1.2v1.19l.53,1.2-.2,1.2L363.12,36l-.2,1.2.13,1.2.77,1.2-.89,1.2L363,42l.13,1.2.44,1.2,0,1.21,0,1.2.13,1.2-.12,1.2-.3,1.2-.45,1.21.3,1.2-.06,1.2-.07,1.2.51,1.2-.53,1.2,0,1.2.75,1.2-.58,1.21.55,1.2-.54,1.2v1.21l.35,1.2.27,1.21-.59,1.2.09,1.2-.12,1.2-.1,1.21v1.2l.28,1.2.11,1.2.13,1.2L363.28,78l0,1.2.27,1.21-.3,1.2,0,1.21.43,1.2-.6,1.2-.23,1.21.75,1.2-.5,1.2.25,1.21,0,1.2-.19,1.21.44,1.2-.06,1.2.09,1.21-.3,1.2.39,1.21-.29,1.2-.5,1.21-.12,1.2.89,1.2-.92,1.21.79,1.2-.46,1.2.66,1.2,0,1.2-.29,1.2.33,1.2-.3,1.21-.16,1.2-.48,1.21.92,1.2-.3,1.21-.35,1.2v1.2l.46,1.21-.69,1.21.5,1.2L362.9,125l.58,1.2-.55,1.21.92,1.21-.1,1.2L363.7,131l-.55,1.21.6,1.2-.65,1.21.3,1.2-.24,1.21.36,1.21-.11,1.2-.47,1.21.37,1.21.51,1.21-.67,1.21.28,1.21-.53,1.21.13,1.22v.88h-.85l-1.19.6-1.19-.54-1.19-.23-1.19.14-1.19.82-1.19-.08-1.19-.07-1.2-.38-1.19.11-1.19.13-1.19.07-1.19.23-1.2-.51-1.19.15-1.19-.23-1.19-.13-1.19.13-1.19-.37-1.2.7-1.19-.35-1.19,0-1.2-.2-1.19.51-1.2-.46-1.2.33-1.32.05.16-1.32.36-1.19.07-1.2-.66-1.2-.12-1.19-.15-1.2.43-1.2.22-1.2-.29-1.2.54-1.19V136l-.22-1.2-.19-1.19.17-1.2-.16-1.2-.42-1.2.45-1.2.11-1.19-.43-1.2.11-1.2-.33-1.2.53-1.19-.53-1.2.48-1.2-.45-1.2.92-1.19-.23-1.2.18-1.19-.07-1.2-.36-1.19.47-1.2-.73-1.19,0-1.2v-1.2l.73-1.2-.19-1.2-.15-1.19-.39-1.2-.13-1.2,0-1.2.67-1.2-.41-1.2.31-1.2,0-1.2-.41-1.2.26-1.2.34-1.2.07-1.2-.6-1.2-.16-1.2.05-1.2.53-1.2-.18-1.2v-1.2l-.57-1.2.84-1.2-.81-1.2.75-1.21-.26-1.2.39-1.2-.1-1.21-.86-1.21.46-1.11-.85.78-.17,1.3-.47,1.12-.94.83-.84.9-.23,1.26-1.18.69L326.37,82l-1,.83-.6,1-.77.94-.4,1.16-.45,1.13-.54,1.08-1.14.72v1.39l-1,.8-.78.93-.61,1L319,94.36l-1,.83-.8.92-.55,1.06-.57,1-.8.92.1,1.45-1.27.64.16,1.5-.86.89-.6,1-.39,1.17-1.4.56-.36,1.18-.62,1-.37,1.18-.64,1-.86.89-.26,1.25-.77.93-.4,1.17-.93.85-.31,1.21-.63,1-.71,1-.64,1-1,.83-.45,1.14-.43,1.14-1,.81-.05,1.37-.82.92-.73,1-.31,1.22-1.08.75-.85.9-.08,1.36-.57,1.06-1.08.75-.21,1.28-.78.94-.57,1.07-.49,1.11-.46,1.14-1.17.7-.79.94.07,1.45-.74,1-1.3.64v1.62l-1.39-.6h-1.21l-1.22.17-1.21.37-1.21-.76-1.21.5-1.21-.29-1.21-.05-1.21.16-1.22,0-1.21.05-1.21-.35-1.21.49-1.21.15-1.22,0-1.21.2-1.21-.58-1.21.36-1.22-.13-1.22-.06-1.21.53-1.22-.24-1.22-.48-1.08,0-1.08-.58-.28-1.24-.33-1.2-1-.79-.81-.91-.47-1.12-.68-1-.06-1.37-.95-.83-1-.78-.05-1.37-1.05-.77-.12-1.33-.92-.86-.33-1.2-.74-1-.53-1.08-.5-1.1-.52-1.09-1.33-.6-.22-1.27-.83-.91-.85-.89-.57-1-.42-1.14L243.5,118l-.78-.93-.47-1.12-.38-1.17-.86-.9-1-.8-.64-1-.3-1.21-.5-1.11-.76-.94-.63-1-1-.81-.13-1.32-.79-.93-.34-1.2-1.07-.76,0-1.43-1.14-.72-.71-1-.21-1.27-.55-1.08-1.13-.72-.54-1.09-.45-1.13-1-.82,0-1.39-1.06-.76-.54-1.09L226.35,89l-1.17-.71-.47-1.12-.14-1.31-1.39-.57-.5-1.11-.18-1.3-1.15-.72-.26-1.25-.48-1.12-1-.84-.58-1-.35-1.2-.52-1.1-1.09-.77-.39-1.42.18,1.4L217,76l-.26,1.19-.3,1.2.53,1.2-.27,1.2-.4,1.2.06,1.19-.05,1.2.24,1.2,0,1.19.75,1.2-.45,1.2-.22,1.2.49,1.19-.44,1.2-.16,1.2.1,1.2.4,1.2.3,1.19-.53,1.2.08,1.2,0,1.2-.35,1.2.62,1.19-.14,1.2-.56,1.2.46,1.19.2,1.19-.32,1.2.51,1.19-.79,1.2.58,1.2.07,1.2-.17,1.2-.35,1.19.09,1.2.31,1.2-.19,1.2.42,1.19-.44,1.21.17,1.19-.55,1.2.47,1.2-.44,1.2.61,1.2-.08,1.2-.64,1.2.36,1.21.46,1.2-.37,1.2,0,1.19.29,1.21-.11,1.2-.05,1.2.14,1.2-.31,1.2-.44,1.2,0,1.21.81,1.2-.14,1.2-.65,1.21.68,1.44-1.42-.43-1.18.56-1.19-.56-1.19.56-1.2,0h-1.19l-1.19-.17-1.19-.07-1.19-.16-1.19.26-1.19-.14-1.2-.17-1.19-.42-1.19.11-1.19,0-1.19.32-1.2,0-1.19-.28-1.19.39-1.19-.14-1.2.21-1.19-.37-1.2.2-1.19.16-1.2.29-1.2-.54Z"/>
          <path d="M384.73,149l-.44-1.05.64-1.2-.3-1.2.15-1.2-.36-1.2-.29-1.2.23-1.2-.05-1.2.07-1.2.24-1.2.08-1.2.36-1.21-.94-1.2.52-1.21.13-1.2v-1.2l-.2-1.2.36-1.2-.71-1.21.75-1.2-.52-1.2.49-1.2-.08-1.2v-1.2l-.68-1.2.21-1.2-.06-1.2.63-1.21-.41-1.2-.11-1.2-.19-1.21.38-1.2-.29-1.21v-1.2l.35-1.2.35-1.2-.23-1.21.15-1.2-.23-1.2.13-1.2.18-1.21-.12-1.2-.22-1.2.2-1.21,0-1.2-.09-1.21.06-1.2-.78-1.2.13-1.21.15-1.2.23-1.2-.08-1.21.45-1.2-.41-1.21.26-1.2.14-1.21-.1-1.2.15-1.2-.29-1.21L384.4,77l-.14-1.21.54-1.2-.27-1.21.23-1.2-.17-1.2-.43-1.2,0-1.2.24-1.2.47-1.2-.47-1.2.7-1.21-.73-1.21-.08-1.2.31-1.2L384.42,59l.5-1.2-.35-1.2-.11-1.21-.29-1.21.79-1.2,0-1.21-.22-1.2-.14-1.21.37-1.21-.7-1.2.06-1.21.69-1.21-.32-1.2.26-1.21-.3-1.21-.32-1.2V38.45l-.19-1.21.67-1.21-.54-1.2.45-1.21-.4-1.21.52-1.21L384.6,30l.17-1.22-.48-1.5h1.5L387,28l1.21-.08,1.2.1,1.21-.89,1.2.72,1.21-.73,1.2,0,1.21.67,1.2-.48,1.2.42,1.21.15,1.2-.75,1.2.9,1.2-.24,1.21-.24h1.2l1.2.46,1.21-.51,1.2.23,1.21.31,1.2-.13,1.21.06,1.21-.3,1.2.3h1.21l1.2.07,1.21-.08,1.2-.31,1.2,0,1.21.09,1.2-.65,1.21.84,1.2-.43,1.21.26,1.2-.39,1.21.54h1.21l1.2.13,1.21-.5,1.2.06,1.21.09,1.2-.56,1.21.61,1.21.22,1.2-.78,1.21.37,1.21-.35,1.2.14,1.21-.06,1.2,0,1.21-.2,1.21,0,1.2.41,1.21-.23,1.2-.13,1.21.06,1.2.53,1.2-.28,1.2-.22,1.21.53,1.2.18,1.21-.4,1.21.18,1.2.23,1.21-.72,1.2.06,1.21.51,1.2-.54,1.21.36,1.21.32,1.21-.5,1.21.5,1.2-.85,1.21.79,1.21-.59,1.21,0,1.21-.2,1.21.09,1.21-.05,1.21.81,1.2-.36,1.21-.55,1.21.07,1.21.51,1.21-.43,1.21.67,1.21-.17,1.21.2,1.21-.67,1.22.66,1.21-.67,1.35.19.32,1.31-.92,1.18,0,1.17.57,1.18.11,1.17-.75,1.18,0,1.17L497,37l-.67,1.17.28,1.18.43,1.17L497,41.65l-.54,1.18,0,1.17.24,1.18.62,1.18-.76,1.17.54,1.18-.73,1.18v1.18l.81,1.18-.44,1.18-.16.92-.92-.19-1.19.26-1.19,0L492,54.28l-1.18.4-1.19.19-1.19.23-1.19-.82-1.19.78-1.19-.4-1.19.12-1.19.2-1.19-.26-1.19-.55-1.19.61-1.19-.24-1.19-.32-1.19.15-1.19.17-1.19-.4-1.19.56-1.19-.23-1.19.61h-1.19l-1.19-1-1.19.67-1.19-.63-1.19.79-1.19-.3-1.19-.32-1.19.62-1.18-.75-1.19.35-1.19.54-1.18-.4-1.2.3-1.19-.77-1.19.51-1.19-.58-1.19.37L448,54.41l-1.19,0-1.19.05h-1.19l-1.19-.1-1.19.38-1.2-.62-1.19.22-1.19-.13h-1.19l-1.2.25-1.19.2-1.19.06-1.2-.32-1.19.32-1.19-.52-1.19.11-1.19.13-1.2.62-1.19-.73-1.2.06-1.2.07-1.19-.23h-1.2l-1.2.22-1.53-.2.38,1.52L418,57l.16,1.2,0,1.2-.22,1.19.72,1.2-.76,1.2.65,1.19-.23,1.2.05,1.2v1.2l-.51,1.2.25,1.2-.12,1.2-.14,1.2.7,1.2-.28,1.14,1.12-.33,1.19.51,1.19,0,1.18.35,1.19-.06,1.19-.08,1.19-.14,1.19.12,1.19-.27,1.19-.23h1.19l1.19.62,1.19-.41,1.19-.35,1.19.16,1.19.25,1.19-.25,1.19.56,1.19-.78,1.19.44,1.19.41,1.19-.25,1.19-.4,1.19.43,1.19.17,1.19-.38,1.19-.2,1.19-.3,1.19.92,1.19-.69,1.18.11,1.19-.3,1.19.14,1.18.73,1.19-.33L461,74.6l1.2,0,1.19.43,1.19-.07,1.19-.15,1.19-.16,1.19.26,1.19-.34,1.19.77,1.19-.73,1.19.06,1.2.82,1.19-.63,1.19.4,1.19-.68,1.2,1,1.19-.35,1.19-.25,1.2.3,1.19-.1L484.8,75l1.19.32,1.19-.75,1.2.17h1.19l1.2,0L492,75l1.19-.13,1.2.09,1.2.31,1.19-.23.23,1.16.24,1.18-.36,1.17-.47,1.17.22,1.18L496.35,82l.27,1.18.49,1.17-.18,1.18-.53,1.18.09,1.17.58,1.17-.31,1.18-.18,1.17.57,1.18-.1,1.18-.3,1.17.16,1.18-.21,1.18-.24,1.18.47,1.18-.56,1.18.7,1.5-1.5-.67-1.19.58-1.19.15-1.19-.17-1.18-.31-1.19-.15-1.19,0-1.19.47-1.19-.46-1.19.13-1.19.47-1.19-.12-1.19-.66-1.19.69-1.19-.61-1.19.74-1.19-.23-1.19.08-1.19-.4-1.19.55-1.19-.8-1.19.19-1.19.41-1.19-.18-1.19.43-1.19-.36-1.19.33-1.19-.79h-1.19l-1.19.06-1.19,0-1.18.38-1.19.21-1.19-.52h-1.18l-1.2.42-1.19-.23-1.19.33-1.19.2-1.19-.21L448,102l-1.19.27-1.19.27-1.19-.3-1.19-.29-1.19.53-1.2-.81-1.19.62-1.19.21-1.19-.38-1.2-.47-1.19,0-1.19.13-1.2.44L431.3,102l-1.19-.18-1.19.06-1.19.54-1.2-.39-1.19.39-1.2-.73-1.2.36-1.19.42-1.2-.69-1.2.6-1.33-.46,0,1.34-.36,1.2.47,1.21-.24,1.2-.25,1.2.09,1.2.81,1.21-.17,1.2.06,1.21-.09,1.2-.26,1.21-.39,1.21.62,1.2-.18,1.21-.15,1.2-.2,1.21.53,1.21.16,1.21.06,1.2.05,1.21-.11,1.21v1.21l-.12,1.2V131l.11,1.21,0,1.21-.06,1.21-.35,1.21,0,1.21.47,1.2-.42,1.21.42,1.21-.62,1.21.2,1.21-.34,1.21.16,1.22.13,1.21-.32,1.21.11,1-1-.26-1.2.64-1.19.18-1.2-.06-1.2-.32-1.2.53-1.19-.87-1.2.07-1.2-.11-1.19.23-1.2-.25-1.2.07-1.2.49-1.2-.21-1.2.56L399,149l-1.19.52-1.2-.68-1.2-.2-1.2.63-1.2.18-1.2-.72-1.2.59-1.2-.24-1.2-.06-1.2.24-1.2-.32Z"/>
        </g>
      </g>
    </g>
  </g>
</svg>
